/* XPM */
static char *_601990620637[] = {
/* columns rows colors chars-per-pixel */
"64 64 25 1 ",
"  c #010101",
". c #382C14",
"X c #202020",
"o c #2C2C2C",
"O c #343434",
"+ c gray22",
"@ c #403018",
"# c #483818",
"$ c #543C1C",
"% c #5C4020",
"& c #6C4824",
"* c #744C28",
"= c gray25",
"- c #484848",
"; c gray33",
": c #646464",
"> c #7C7C7C",
", c #80502C",
"< c #885830",
"1 c #905C34",
"2 c #9C6038",
"3 c #A86840",
"4 c #B47044",
"5 c #980088",
"6 c gray55",
/* pixels */
"5555555555555555555555555555555555555555555555555555555555555555",
"5555555555555555555555555555555555555555555555555555555555555555",
"5555555555555555555555555555555555555555555555555555555555555555",
"5555555555555555555555555555555555555555555555555555555555555555",
"5555555555555555555555555555555555555555555555555555555555555555",
"5555555555555555555555555555555555555555555555555555555555555555",
"5555555555555555555555555555555555555555555555555555555555555555",
"5555555555555555555555555555555555555555555555555555555555555555",
"5555555555555555555555555555555555555555555555555555555555555555",
"5555555555555555555555555555555555555555555555555555555555555555",
"5555555555555555555555555555555555555555555555555555555555555555",
"5555555555555555555555555555555555555555555555555555555555555555",
"5555555555555555555555555555555555555555555555555555555555555555",
"5555555555555555555555555555555555555555555555555555555555555555",
"5555555555555555555555555555555555555555555555555555555555555555",
"5555555555555555555555555555555555555555555555555555555555555555",
"5555555555555555555555555555555555555555555555555555555555555555",
"5555555555555555555555555555555555555555555555555555555555555555",
"5555555555555555555555555555555555555555555555555555555555555555",
"5555555555555555555555555555555555555555555555555555555555555555",
"5555555555555555555555555555555555555555555555555555555555555555",
"5555555555555555555555555555555555555555555555555555555555555555",
"5555555555555555555555555555555555555555555555555555555555555555",
"5555555555555555555555555555555555555555555555555555555555555555",
"5555555555555555555555555555555555555555555555555555555555555555",
"5555555555555555555555555555555555555555555555555555555555555555",
"5555555555555555555555555555555555555555555555555555555555555555",
"5555555555555555555555555555555555555555555555555555555555555555",
"5555555555555555555555555555555555555555555555555555555555555555",
"5555555555555555555555555555555555555555555555555555555555555555",
"5555555555555555555555555555555555555555555555555555555555555555",
"5555555555555555555555555553,555555553,5555555555555555555555555",
"555555555555555555555555555;3,55555533,5555555555555555555555555",
"555555555555555555555555555;3,5555553,;5555555555555555555555555",
"5555555555555555555555555555;+,,55,,+;55555555555555555555555555",
"5555555555555555555555555555;+oooooo+;55555555555555555555555555",
"5555555555555555555555555555+;-+oo+-;+55555555555555555555555555",
"55555555555555555555555555552-X-++-X-;55555555555555555555555555",
"555555555555555555555555555,224XXXX32&$5555555555555555555555555",
"555555555555555555555555555,24+-  -o1&$5555555555555555555555555",
"555555555555555555555555555,,;+++++o;&$5555555555555555555555555",
"5555555555555555555555555555,;+6;;>o;&55555555555555555555555555",
"5555555555555555555555555555,3+;++;+1,55555555555555555555555555",
"555555555555555555555555555,131-----1,&5555555555555555555555555",
"555555555555555555555555555,131-----1,&5555555555555555555555555",
"555555555555555555555555555,131;;;;;11,5555555555555555555555555",
"55555555555555555555555555,1233:;;;:1;1,555555555555555555555555",
"55555555555555555555555555,123:;:2:;:;1,555555555555555555555555",
"55555555555555555555555555,1333:2;2:221,555555555555555555555555",
"55555555555555555555555555,13;:2::::;11,555555555555555555555555",
"55555555555555555555555555&133;::;;;:1,$555555555555555555555555",
"55555555555555555555555555&1133;===<21&$555555555555555555555555",
"55555555555555555555555555%*1,;oOOOo,,,$555555555555555555555555",
"555555555555555555555555555*,2,$ooo*33,%555555555555555555555555",
"555555555555555555555555555%22,-$o@*33&%555555555555555555555555",
"555555555555555555555555555%<22--.@33,#5555555555555555555555555",
"555555555555555555555555555&@2;**.33,@%5555555555555555555555555",
"555555555555555555555555555*@$**%511,@%5555555555555555555555555",
"555555555555555555555555555,%@%%5511,@%5555555555555555555555555",
"555555555555555555555555555,%@5555555@%5555555555555555555555555",
"5555555555555555555555555511%55555555,,*555555555555555555555555",
"55555555555555555555555555,,%--------%%&--------;;55555555555555",
"55555555555555555555555555;---+++ooooooooooooo+++----;;;55555555",
"555555555555555555555555555;;;;;;;;---------------;;555555555555"
};
